<svg width="34" height="34" viewBox="0 0 34 34" fill="none" xmlns="http://www.w3.org/2000/svg">
<path d="M20.8571 16.7143C20.8571 18.76 19.1886 20.4286 17.1429 20.4286C15.0971 20.4286 13.4286 18.76 13.4286 16.7143C13.4286 14.6685 15.0971 13 17.1429 13C19.1886 13 20.8571 14.6685 20.8571 16.7143ZM22.8594 16.7143C22.8594 13.5513 20.3058 10.9978 17.1429 10.9978C13.9799 10.9978 11.4263 13.5513 11.4263 16.7143C11.4263 19.8772 13.9799 22.4308 17.1429 22.4308C20.3058 22.4308 22.8594 19.8772 22.8594 16.7143ZM24.4263 10.7656C24.4263 10.0257 23.8315 9.4308 23.0915 9.4308C22.3516 9.4308 21.7567 10.0257 21.7567 10.7656C21.7567 11.5056 22.3516 12.1004 23.0915 12.1004C23.8315 12.1004 24.4263 11.5056 24.4263 10.7656ZM17.1429 7.57366C18.7679 7.57366 22.25 7.44308 23.7154 8.02344C24.2232 8.22656 24.6004 8.47321 24.9922 8.86495C25.3839 9.2567 25.6306 9.63393 25.8337 10.1417C26.4141 11.6071 26.2835 15.0893 26.2835 16.7143C26.2835 18.3393 26.4141 21.8214 25.8337 23.2868C25.6306 23.7946 25.3839 24.1719 24.9922 24.5636C24.6004 24.9554 24.2232 25.202 23.7154 25.4051C22.25 25.9855 18.7679 25.8549 17.1429 25.8549C15.5179 25.8549 12.0357 25.9855 10.5703 25.4051C10.0625 25.202 9.68527 24.9554 9.29353 24.5636C8.90179 24.1719 8.65513 23.7946 8.45201 23.2868C7.87165 21.8214 8.00223 18.3393 8.00223 16.7143C8.00223 15.0893 7.87165 11.6071 8.45201 10.1417C8.65513 9.63393 8.90179 9.2567 9.29353 8.86495C9.68527 8.47321 10.0625 8.22656 10.5703 8.02344C12.0357 7.44308 15.5179 7.57366 17.1429 7.57366ZM28.2857 16.7143C28.2857 15.1763 28.3002 13.6529 28.2132 12.115C28.1261 10.3304 27.7199 8.74888 26.4141 7.44308C25.1083 6.13728 23.5268 5.73103 21.7422 5.64397C20.2042 5.55692 18.6808 5.57143 17.1429 5.57143C15.6049 5.57143 14.0815 5.55692 12.5435 5.64397C10.7589 5.73103 9.17746 6.13728 7.87165 7.44308C6.56585 8.74888 6.1596 10.3304 6.07254 12.115C5.98549 13.6529 6 15.1763 6 16.7143C6 18.2522 5.98549 19.7757 6.07254 21.3136C6.1596 23.0982 6.56585 24.6797 7.87165 25.9855C9.17746 27.2913 10.7589 27.6975 12.5435 27.7846C14.0815 27.8717 15.6049 27.8571 17.1429 27.8571C18.6808 27.8571 20.2042 27.8717 21.7422 27.7846C23.5268 27.6975 25.1083 27.2913 26.4141 25.9855C27.7199 24.6797 28.1261 23.0982 28.2132 21.3136C28.3002 19.7757 28.2857 18.2522 28.2857 16.7143Z" fill="white"/>
</svg>
